<svg width="185" height="75" viewBox="0 0 185 75" fill="none" xmlns="http://www.w3.org/2000/svg">
<path d="M0.672 10.648C3.168 12.568 3.072 14.392 3.072 17.272V47.8C3.072 52.312 4.032 55 8.736 55H23.52C21.024 53.08 21.216 51.256 21.216 48.376V26.104C21.696 18.04 23.328 12.952 26.496 12.952C28.8 12.952 30.816 14.392 30.816 26.2V47.8C30.816 52.312 31.872 55 36.576 55H51.264C48.864 53.08 48.96 51.256 48.96 48.376V27.928C49.344 18.808 50.976 12.952 54.336 12.952C56.64 12.952 58.656 14.392 58.656 26.2V47.8C58.656 52.312 59.712 55 64.416 55H79.104C76.704 53.08 76.8 51.256 76.8 48.376V25.912C76.8 13.24 65.76 9.688 57.696 9.688C52.128 9.688 48.768 12.664 46.944 17.848C43.488 11.608 35.808 9.688 29.856 9.688C25.632 9.688 22.752 11.32 20.832 14.296V14.104C20.256 11.896 18.624 10.648 15.456 10.648H0.672ZM81.411 32.632C81.411 47.416 92.547 55.96 110.211 55.96C118.851 55.96 124.131 53.464 127.971 47.032L123.651 43.48C119.811 50.68 115.875 54.52 110.883 54.52C101.187 54.52 100.515 38.488 100.515 31.768H129.507C131.043 19.48 123.939 9.688 107.811 9.688C91.299 9.688 81.411 19.576 81.411 32.632ZM100.611 28.792C100.995 19.192 102.819 11.128 106.659 11.128C111.459 11.128 111.939 20.344 111.939 28.792H100.611ZM150.368 52.888C141.44 55 132.608 58.36 132.608 63.448C132.608 71.608 146.72 74.872 157.568 74.872C168.128 74.872 182.912 71.416 182.912 61.816C182.912 46.36 155.168 48.952 155.168 45.304C155.168 44.44 157.184 42.808 159.584 42.136C168.8 41.176 179.264 35.992 179.264 25.816C179.264 17.944 172.928 13.24 165.728 11.032C167.36 10.264 169.088 9.88 170.816 9.88C175.328 9.88 179.456 12.472 181.28 16.408C185.696 13.624 186.368 3.448 180.128 1.24C178.88 0.76 177.536 0.567997 176.288 0.567997C170.72 0.567997 165.344 4.408 162.944 10.36C160.832 9.88 158.624 9.688 156.608 9.688C146.816 9.688 133.855 14.68 133.855 25.816C133.855 35.416 143.359 40.6 152.288 41.944C144.512 42.904 140 44.92 140 46.456C140 49.144 144.992 50.776 150.368 52.888ZM151.616 25.72C151.616 14.872 153.632 11.128 156.512 11.128C159.584 11.128 161.6 15.064 161.6 25.72C161.6 36.568 159.488 40.888 156.512 40.888C153.632 40.888 151.616 36.568 151.616 25.72ZM151.808 64.504C151.808 60.184 153.344 57.208 155.456 55C160.064 57.112 163.808 59.992 163.808 64.408C163.808 71.224 160.544 73.432 157.664 73.432C154.592 73.432 151.808 70.264 151.808 64.504Z" fill="black"/>
</svg>
